<?xml version="1.0" encoding="UTF-8" standalone="no"?>
<!-- Created with Inkscape (http://www.inkscape.org/) -->

<svg
   xmlns:dc="http://purl.org/dc/elements/1.1/"
   xmlns:cc="http://creativecommons.org/ns#"
   xmlns:rdf="http://www.w3.org/1999/02/22-rdf-syntax-ns#"
   xmlns:svg="http://www.w3.org/2000/svg"
   xmlns="http://www.w3.org/2000/svg"
   xmlns:sodipodi="http://sodipodi.sourceforge.net/DTD/sodipodi-0.dtd"
   xmlns:inkscape="http://www.inkscape.org/namespaces/inkscape"
   width="744.09448819"
   height="1052.3622047"
   id="svg2"
   version="1.1"
   inkscape:version="0.48.4 r9939"
   sodipodi:docname="bonequinho.svg"
   inkscape:export-filename="/home/anarute/windows/code/mupi/mupi-infographic/img/bonequinho2.png"
   inkscape:export-xdpi="12.26"
   inkscape:export-ydpi="12.26">
  <defs
     id="defs4" />
  <sodipodi:namedview
     id="base"
     pagecolor="#ffffff"
     bordercolor="#666666"
     borderopacity="1.0"
     inkscape:pageopacity="0.0"
     inkscape:pageshadow="2"
     inkscape:zoom="1.979899"
     inkscape:cx="369.77901"
     inkscape:cy="593.97789"
     inkscape:document-units="px"
     inkscape:current-layer="layer1"
     showgrid="false"
     inkscape:window-width="1366"
     inkscape:window-height="702"
     inkscape:window-x="0"
     inkscape:window-y="27"
     inkscape:window-maximized="1" />
  <metadata
     id="metadata7">
    <rdf:RDF>
      <cc:Work
         rdf:about="">
        <dc:format>image/svg+xml</dc:format>
        <dc:type
           rdf:resource="http://purl.org/dc/dcmitype/StillImage" />
        <dc:title></dc:title>
      </cc:Work>
    </rdf:RDF>
  </metadata>
  <g
     inkscape:label="Layer 1"
     inkscape:groupmode="layer"
     id="layer1">
    <path
       sodipodi:type="arc"
       style="fill:#cccccc;fill-opacity:1;stroke:none"
       id="path3914"
       sodipodi:cx="354.05847"
       sodipodi:cy="621.5321"
       sodipodi:rx="94.449265"
       sodipodi:ry="81.317284"
       d="m 448.50774,621.5321 a 94.449265,81.317284 0 1 1 -188.89853,0 94.449265,81.317284 0 1 1 188.89853,0 z"
       transform="matrix(0.7081734,0.32872314,-0.14644725,0.3154936,214.06362,365.09865)" />
    <path
       sodipodi:type="arc"
       style="fill:#483737;fill-opacity:1;stroke:none"
       id="path3880"
       sodipodi:cx="321.73358"
       sodipodi:cy="644.76562"
       sodipodi:rx="27.779196"
       sodipodi:ry="41.921329"
       d="m 349.51278,644.76562 a 27.779196,41.921329 0 1 1 -55.55839,0 27.779196,41.921329 0 1 1 55.55839,0 z"
       transform="matrix(1.0363637,0,0,1,8.544259,-6.989847)" />
    <path
       transform="matrix(1.1090909,0,0,1,52.239381,20.545692)"
       sodipodi:type="arc"
       style="fill:#483737;fill-opacity:1;stroke:none"
       id="path3880-4"
       sodipodi:cx="321.73358"
       sodipodi:cy="644.76562"
       sodipodi:rx="27.779196"
       sodipodi:ry="41.921329"
       d="m 349.51278,644.76562 a 27.779196,41.921329 0 1 1 -55.55839,0 27.779196,41.921329 0 1 1 55.55839,0 z" />
    <path
       sodipodi:type="arc"
       style="fill:#a05a2c;fill-opacity:1;stroke:none"
       id="path3876"
       sodipodi:cx="293.57144"
       sodipodi:cy="640.2193"
       sodipodi:rx="13.571428"
       sodipodi:ry="20.714285"
       d="m 307.14287,640.2193 a 13.571428,20.714285 0 1 1 -27.14286,0 13.571428,20.714285 0 1 1 27.14286,0 z"
       transform="translate(0,-8)" />
    <path
       sodipodi:type="arc"
       style="fill:#a05a2c;fill-opacity:1;stroke:none"
       id="path3878"
       sodipodi:cx="462.85715"
       sodipodi:cy="641.64789"
       sodipodi:rx="11.428572"
       sodipodi:ry="17.857143"
       d="m 474.28572,641.64789 a 11.428572,17.857143 0 1 1 -22.85714,0 11.428572,17.857143 0 1 1 22.85714,0 z"
       transform="matrix(1,0,0,1.16,-4,-113.5208)" />
    <path
       sodipodi:type="star"
       style="fill:#552200"
       id="path2989-2"
       sodipodi:sides="20"
       sodipodi:cx="565.71429"
       sodipodi:cy="532.36218"
       sodipodi:r1="387.49854"
       sodipodi:r2="193.74927"
       sodipodi:arg1="-2.555635"
       sodipodi:arg2="-2.3985554"
       inkscape:flatsided="true"
       inkscape:rounded="1.06"
       inkscape:randomized="0"
       d="m 242.85715,318.07645 c 71.06595,-107.07269 -18.65533,-9.40887 82.01968,-89.28046 100.67502,-79.87159 -14.83477,-14.71317 105.59454,-59.56528 120.42931,-44.85211 -9.56209,-18.57726 118.83306,-24.01944 128.39514,-5.44219 -3.3534,-20.62287 120.43936,13.87758 123.79277,34.50046 3.18355,-20.64977 110.25624,50.41618 107.07269,71.06595 9.40886,-18.65532 89.28046,82.01969 79.87159,100.67502 14.71317,-14.83477 59.56528,105.59454 44.8521,120.42931 18.57725,-9.56209 24.01944,118.83305 5.44219,128.39515 20.62287,-3.35339 -13.87759,120.43937 -34.50045,123.79277 20.64977,3.18355 -50.41618,110.25624 -71.06595,107.07269 18.65533,9.40886 -82.01968,89.28045 -100.67502,79.8716 14.83477,14.71318 -105.59454,59.56528 -120.42931,44.85211 9.56209,18.57726 -118.83306,24.01945 -128.39514,5.44218 3.3534,20.62287 -120.43936,-13.87759 -123.79277,-34.50045 -3.18355,20.64977 -110.25624,-50.41618 -107.07269,-71.06595 -9.40886,18.65533 -89.28046,-82.01969 -79.87159,-100.67501 -14.71317,14.83478 -59.56528,-105.59453 -44.85211,-120.42931 -18.57725,9.56208 -24.01944,-118.83306 -5.44219,-128.39514 -20.62287,3.3534 13.87759,-120.43937 34.50045,-123.79276 -20.64977,-3.18354 50.41618,-110.25623 z"
       transform="matrix(0.47548743,0,0,0.47548743,104.72425,179.22777)" />
    <path
       style="fill:#333333;fill-opacity:1;stroke:none"
       id="path3906"
       d="m 331.01822,652.94677 c 1.58874,1.77392 3.27562,3.46027 4.97449,5.1283 1.55679,1.50767 3.25444,2.92684 5.07181,4.11403 1.01673,0.64768 2.15969,0.99496 3.0719,1.78579 1.0095,0.50605 1.75814,1.30347 2.64885,1.96336 0.60721,0.35989 0.89591,0.53339 1.21694,1.1631 0.35061,0.11485 0.85524,0.38264 1.29917,0.63562 0.39114,0.218 0.78644,0.42835 1.18248,0.63725 0,0 -12.65634,8.22019 -12.65634,8.22019 l 0,0 c -0.35906,-0.22684 -0.72218,-0.44742 -1.09541,-0.6504 -0.7766,-0.40308 -1.511,-0.7364 -1.95608,-1.54624 0.48048,0.68784 -0.5074,-0.39212 -0.70939,-0.46722 -0.82379,-0.70085 -1.65104,-1.37911 -2.58324,-1.93841 -1.00419,-0.57256 -2.04277,-1.0849 -2.95858,-1.80713 -1.81519,-1.32975 -3.56038,-2.77811 -5.13489,-4.38694 -1.68019,-1.71139 -3.37993,-3.40927 -5.16522,-5.01142 0,0 12.79351,-7.83988 12.79351,-7.83988 z"
       inkscape:connector-curvature="0" />
    <path
       style="fill:#333333;fill-opacity:1;stroke:none"
       id="path3910"
       d="m 401.74413,682.47043 c 0.63113,1.44036 0.90006,3.05624 1.78433,4.37162 0.17417,0.554 0.66024,0.23099 0.98847,0.44977 0.43213,0.45245 0.21249,0.28962 0.62175,0.535 0.73808,0.32047 1.41507,0.73265 2.19408,0.99952 0.66076,0.2562 1.30474,0.39009 2.00106,0.38183 0.75077,0.16611 1.4392,0.66902 2.21816,0.93247 0.75081,0.18149 1.21238,0.76408 1.91217,1.11701 1.03834,0.5941 2.09349,0.86053 3.26708,0.95621 0.46366,0.2294 0.85865,0.53322 1.3337,0.73449 0,0 -12.54326,8.27794 -12.54326,8.27794 l 0,0 c -0.3484,-0.1862 -0.64537,-0.37523 -1.05224,-0.37716 -1.25163,-0.26424 -2.37932,-0.79732 -3.50061,-1.40698 -0.66955,-0.36436 -1.22397,-0.67315 -1.91824,-0.91197 -0.67924,-0.30098 -1.24738,-0.67334 -2.00329,-0.59816 -0.75318,-0.16064 -1.45714,-0.49627 -2.17353,-0.77042 -0.82171,-0.38026 -1.68085,-0.67331 -2.41036,-1.22232 -0.65694,-0.47514 -1.52464,-0.70769 -1.8913,-1.57061 -0.83155,-1.45821 -1.14368,-3.10049 -1.89361,-4.60204 0,0 13.06564,-7.2962 13.06564,-7.2962 z"
       inkscape:connector-curvature="0" />
    <path
       style="fill:#8dd35f;stroke:none"
       d="m 299.33148,649.52525 c -16.95706,-11.31155 -20.26169,-52.04836 -1.7752,-58.24223 89.86132,-30.1079 162.21614,4.1842 162.21614,4.1842 0,0 23.14451,43.59779 -17.59101,56.91517 -52.52794,17.17259 -123.20873,10.24492 -142.84993,-2.85714 z"
       id="path2999"
       inkscape:connector-curvature="0"
       sodipodi:nodetypes="sscss" />
    <path
       style="fill:#2b1100"
       d="m 315.52595,283.2422 c -0.0679,0.0808 -0.0324,0.22257 0.25069,0.32945 0.21554,-0.44673 -0.13907,-0.4624 -0.25069,-0.32945 z m 0.25069,0.32945 c -0.50585,1.04839 -4.10602,4.56224 -21.05932,14.63923 -16.98865,10.09797 -21.77669,11.55227 -22.92659,11.48915 -0.15824,1.15484 -2.49514,5.60324 -15.50126,20.42192 -13.0342,14.85068 -17.12763,17.71465 -18.2417,18.01089 0.2078,1.14322 -0.61891,6.10871 -8.41406,24.23241 -7.76985,18.06489 -10.78815,22.1091 -11.77106,22.76445 0.55013,1.04656 1.26429,6.06208 -0.54261,25.64064 -0.682,7.38984 -1.31914,12.61659 -1.91125,16.37995 0.26931,-0.53684 0.49075,-1.09399 0.75948,-1.63113 0.67955,-1.13664 1.2079,-2.39541 2.04371,-3.42262 1.07743,-1.32413 2.37028,-2.44412 3.64719,-3.57711 0.16216,-0.14393 0.44014,-0.0895 0.61952,-0.21134 1.94111,-1.31801 3.52443,-3.02666 4.82791,-4.97064 0.41404,-0.60271 3.26958,-4.80485 3.95039,-5.64701 0.86574,-1.07088 1.75521,-2.13095 2.72737,-3.10628 0.10362,-0.10395 0.34298,0.0286 0.45043,-0.0714 0.94264,-0.87772 2.176,-2.90389 2.8017,-3.83077 1.58556,-2.27044 3.05004,-4.47759 4.89498,-6.57115 0.71292,-0.80898 1.55716,-1.49563 2.33961,-2.23751 2.44071,-2.31408 4.80129,-4.69247 7.05237,-7.19503 0.55519,-0.60775 4.71775,-5.11895 5.46056,-6.02016 1.01224,-1.22809 1.93144,-2.53641 2.92852,-3.77681 3.92621,-4.88419 8.25731,-9.40578 12.80593,-13.71516 5.14749,-4.37259 5.53561,-4.86757 10.5246,-8.60019 3.33119,-2.49235 5.2443,-3.74754 8.53917,-6.11341 1.05345,-0.75646 2.16773,-1.47048 3.15592,-2.31041 1.2651,-1.07528 2.40099,-2.28638 3.60343,-3.43132 1.35311,-1.16189 2.6451,-2.40333 4.06406,-3.4838 3.49444,-2.66086 4.70132,-3.14045 8.36717,-5.11636 4.71309,-2.53954 9.41282,-5.09248 14.11629,-7.64977 9.85991,-5.3287 19.84153,-10.42322 29.68152,-15.78629 3.02624,-2.08019 5.95624,-4.26454 9.25769,-5.91394 7.38482,-3.68876 15.29891,-6.19304 23.44107,-7.53735 9.29218,-1.10128 11.41858,-1.63757 20.82739,-1.63233 8.61115,0.005 7.20503,0.46973 14.364,0.84564 2.45992,0.12917 4.93357,0.11564 7.39334,0.2479 2.78142,0.14955 5.54116,0.4002 8.31902,0.60504 6.03339,0.39667 12.06674,0.89966 18.1029,1.25241 5.96446,0.34855 11.80895,0.0846 17.44122,1.97535 -8.19527,-7.63271 -10.11235,-10.43393 -10.34801,-11.31901 -1.14585,0.20684 -6.09715,-0.63234 -24.21341,-8.42428 -18.06495,-7.76983 -22.10913,-10.78817 -22.76448,-11.77109 -1.01511,0.55111 -5.9723,1.27261 -25.64066,-0.54258 -19.63856,-1.81248 -24.39066,-3.44449 -25.29798,-4.17371 -0.79356,0.83737 -5.28081,3.07409 -24.55184,7.42658 -19.22587,4.34228 -24.23198,4.27063 -25.32437,3.85815 z m 49.87623,-11.28474 c 0.54085,-0.57068 -0.61943,-0.49785 0,0 z m 50.93865,4.71628 c 0.69531,-0.37711 -0.45078,-0.67609 0,0 z m 46.97788,20.19538 c 0.78243,-0.14126 -0.20213,-0.75951 0,0 z m -245.70677,97.93115 c -0.38075,-0.72493 -0.68061,0.45375 0,0 z m 20.18514,-46.99687 c -0.1417,-0.77968 -0.75861,0.20172 0,0 z m 33.74296,-38.43282 c 0.10803,-0.78856 -0.78337,-0.043 0,0 z"
       id="path2989"
       inkscape:connector-curvature="0"
       sodipodi:nodetypes="ccccscscscsccscscscscsscsscssscscccscssscsccscscsccccccccccccc" />
    <path
       sodipodi:type="arc"
       style="fill:#a05a2c"
       id="path2991"
       sodipodi:cx="379.81735"
       sodipodi:cy="528.09302"
       sodipodi:rx="86.873116"
       sodipodi:ry="71.720833"
       d="m 466.69047,528.09302 a 86.873116,71.720833 0 1 1 -173.74623,0 86.873116,71.720833 0 1 1 173.74623,0 z"
       transform="matrix(1.1927546,0,0,1.1889628,-74.158886,-97.180067)" />
    <path
       style="fill:#552200;fill-opacity:1;stroke:none"
       d="m 261.42857,542.6479 -9.99999,7.14286 94.2857,-31.42858 71.42858,0 78.57143,24.28572 10,-98.57143 L 372.85714,398.36218 234.28571,502.6479 z"
       id="path3788"
       inkscape:connector-curvature="0"
       sodipodi:nodetypes="ccccccccc" />
    <path
       sodipodi:type="arc"
       style="fill:#1a1a1a;fill-opacity:1;stroke:none"
       id="path3792"
       sodipodi:cx="121.42857"
       sodipodi:cy="730.93359"
       sodipodi:rx="14.285714"
       sodipodi:ry="14.285714"
       d="m 135.71429,730.93359 a 14.285714,14.285714 0 1 1 -28.57143,0 14.285714,14.285714 0 1 1 28.57143,0 z"
       transform="translate(233.14286,-154.85714)" />
    <path
       sodipodi:type="arc"
       style="fill:#ececec;fill-opacity:1;stroke:none"
       id="path3794"
       sodipodi:cx="121.42857"
       sodipodi:cy="723.79077"
       sodipodi:rx="4.2857141"
       sodipodi:ry="4.2857141"
       d="m 125.71429,723.79077 a 4.2857141,4.2857141 0 1 1 -8.57143,0 4.2857141,4.2857141 0 1 1 8.57143,0 z"
       transform="translate(233.14286,-154.85714)" />
    <path
       transform="translate(283.14285,-154.85713)"
       sodipodi:type="arc"
       style="fill:#1a1a1a;fill-opacity:1;stroke:none"
       id="path3792-0"
       sodipodi:cx="121.42857"
       sodipodi:cy="730.93359"
       sodipodi:rx="14.285714"
       sodipodi:ry="14.285714"
       d="m 135.71429,730.93359 a 14.285714,14.285714 0 1 1 -28.57143,0 14.285714,14.285714 0 1 1 28.57143,0 z" />
    <path
       transform="translate(283.14285,-154.85713)"
       sodipodi:type="arc"
       style="fill:#ececec;fill-opacity:1;stroke:none"
       id="path3794-5"
       sodipodi:cx="121.42857"
       sodipodi:cy="723.79077"
       sodipodi:rx="4.2857141"
       sodipodi:ry="4.2857141"
       d="m 125.71429,723.79077 a 4.2857141,4.2857141 0 1 1 -8.57143,0 4.2857141,4.2857141 0 1 1 8.57143,0 z" />
    <path
       style="fill:#aade87;stroke:none"
       d="m 341.49248,653.35192 c 0,0 51.7074,6.87257 87.88327,-2.0203 21.42425,-5.26658 -87.88327,2.0203 -87.88327,2.0203 z"
       id="path3904"
       inkscape:connector-curvature="0"
       sodipodi:nodetypes="asa" />
  </g>
</svg>
